<svg width="460" height="108" viewBox="0 0 460 108" fill="none" xmlns="http://www.w3.org/2000/svg">
<g clip-path="url(#clip0_2323_6632)">
<path d="M390.859 1.90503H459.594V24.0227H416.38V49.0326H459.594V71.1503H416.38V98.8824H459.594V121H390.859V1.90503Z" fill="#2E1E5F"/>
<path d="M359.038 121L334.709 77.9557H324.501V121H298.98V1.90503H338.112C344.577 1.90503 350.305 2.86913 355.295 4.79734C360.286 6.61212 364.483 9.22087 367.885 12.6236C371.402 16.0263 374.067 20.0528 375.882 24.7032C377.697 29.3536 378.604 34.4009 378.604 39.8453C378.604 47.3313 376.959 54.0233 373.67 59.9213C370.381 65.7059 365.617 70.1862 359.379 73.362L386.941 121H359.038ZM338.112 55.8381C342.989 55.8381 346.675 54.2501 349.171 51.0742C351.779 47.8984 353.084 44.1554 353.084 39.8453C353.084 35.5352 351.779 31.8489 349.171 28.7865C346.675 25.6106 342.989 24.0227 338.112 24.0227H324.501V55.8381H338.112Z" fill="#2E1E5F"/>
<path d="M291.079 76.4245C291.079 86.1789 289.548 94.0619 286.485 100.073C283.536 106.085 279.736 110.792 275.086 114.195C270.436 117.484 265.275 119.752 259.604 121C254.046 122.134 248.658 122.701 243.441 122.701C238.223 122.701 232.779 122.134 227.108 121C221.55 119.752 216.446 117.484 211.796 114.195C207.145 110.792 203.289 106.085 200.226 100.073C197.277 94.0619 195.803 86.1789 195.803 76.4245V1.90503H221.323V76.4245C221.323 80.5077 221.89 83.9672 223.024 86.8027C224.159 89.6383 225.69 91.9635 227.618 93.7783C229.546 95.4797 231.872 96.784 234.594 97.6914C237.316 98.4854 240.265 98.8824 243.441 98.8824C249.906 98.8824 255.18 97.0109 259.263 93.2679C263.46 89.5249 265.558 83.9104 265.558 76.4245V1.90503H291.079V76.4245Z" fill="#2E1E5F"/>
<path d="M188.054 78.6362C188.054 88.3907 186.58 96.1602 183.631 101.945C180.795 107.729 177.109 112.153 172.572 115.215C168.148 118.278 163.214 120.263 157.77 121.17C152.326 122.191 147.108 122.701 142.118 122.701L138.715 95.9901C142.118 95.9901 145.237 95.7065 148.072 95.1394C151.021 94.5723 153.517 93.6649 155.558 92.4172C157.713 91.0561 159.415 89.2981 160.662 87.143C161.91 84.8745 162.534 82.0389 162.534 78.6362V1.90503H188.054V78.6362Z" fill="#2E1E5F"/>
<path d="M129.903 1.39469C128.882 5.36452 127.577 9.67463 125.989 14.325C124.402 18.862 122.7 23.4556 120.885 28.106C119.071 32.6429 117.199 37.0098 115.271 41.2064H97.0664C97.8604 37.8037 98.6543 34.2876 99.4483 30.658C100.242 27.0285 100.98 23.3989 101.66 19.7693C102.454 16.0264 103.135 12.4535 103.702 9.05079C104.382 5.64808 104.949 2.47221 105.403 -0.476807H128.712L129.903 1.39469Z" fill="#2E1E5F"/>
<path d="M-0.0859375 1.90503H34.6217C43.4688 1.90503 51.4085 3.43625 58.4407 6.4987C65.473 9.44772 71.4278 13.5877 76.305 18.9186C81.1822 24.1361 84.9252 30.3744 87.534 37.6335C90.1427 44.8927 91.4471 52.7756 91.4471 61.2824C91.4471 69.9026 90.1427 77.899 87.534 85.2715C84.9252 92.5306 81.1822 98.8257 76.305 104.157C71.4278 109.374 65.473 113.514 58.4407 116.576C51.4085 119.526 43.4688 121 34.6217 121H-0.0859375V1.90503ZM34.6217 98.8824C39.499 98.8824 43.8658 97.9183 47.7222 95.9901C51.5786 93.9484 54.8679 91.2263 57.5901 87.8236C60.3122 84.3074 62.3539 80.2809 63.715 75.7439C65.1895 71.0936 65.9267 66.2163 65.9267 61.1123C65.9267 56.1216 65.1895 51.4145 63.715 46.991C62.3539 42.454 60.3122 38.4842 57.5901 35.0815C54.8679 31.6788 51.5786 29.0133 47.7222 27.0851C43.8658 25.0435 39.499 24.0227 34.6217 24.0227H25.4344V98.8824H34.6217Z" fill="#2E1E5F"/>
<line y1="102" x2="460" y2="102" stroke="#2E1E5F" stroke-width="12"/>
</g>
<defs>
<clipPath id="clip0_2323_6632">
<rect width="460" height="108" fill="white"/>
</clipPath>
</defs>
</svg>
