<svg width="75" height="20" viewBox="0 0 75 20" fill="none" xmlns="http://www.w3.org/2000/svg">
<path d="M63.4766 0.386841H74.6368V3.978H67.6202V8.03877H74.6368V11.6299H67.6202V16.1327H74.6368V19.7238H63.4766V0.386841Z" fill="white"/>
<path d="M58.309 19.7238L54.3587 12.7349H52.7013V19.7238H48.5576V0.386841H54.9112C55.9609 0.386841 56.8909 0.543379 57.7013 0.856454C58.5116 1.15111 59.193 1.57469 59.7455 2.12717C60.3164 2.67966 60.7491 3.33343 61.0438 4.0885C61.3385 4.84356 61.4858 5.66308 61.4858 6.54706C61.4858 7.76253 61.2188 8.84908 60.6847 9.80673C60.1506 10.746 59.3771 11.4734 58.3642 11.989L62.8394 19.7238H58.309ZM54.9112 9.14374C55.7031 9.14374 56.3016 8.88592 56.7068 8.37026C57.1304 7.85461 57.3421 7.24687 57.3421 6.54706C57.3421 5.84724 57.1304 5.24872 56.7068 4.75148C56.3016 4.23583 55.7031 3.978 54.9112 3.978H52.7013V9.14374H54.9112Z" fill="white"/>
<path d="M47.2762 12.4863C47.2762 14.0701 47.0276 15.35 46.5304 16.3261C46.0516 17.3021 45.4346 18.0664 44.6796 18.6189C43.9245 19.1529 43.0866 19.5213 42.1658 19.7239C41.2634 19.908 40.3886 20.0001 39.5414 20.0001C38.6943 20.0001 37.8103 19.908 36.8895 19.7239C35.9871 19.5213 35.1584 19.1529 34.4033 18.6189C33.6483 18.0664 33.0221 17.3021 32.5249 16.3261C32.0461 15.35 31.8066 14.0701 31.8066 12.4863V0.386841H35.9503V12.4863C35.9503 13.1493 36.0424 13.711 36.2265 14.1714C36.4107 14.6318 36.6593 15.0093 36.9724 15.304C37.2855 15.5802 37.663 15.792 38.105 15.9393C38.547 16.0682 39.0258 16.1327 39.5414 16.1327C40.5912 16.1327 41.4475 15.8288 42.1105 15.2211C42.7919 14.6134 43.1326 13.7018 43.1326 12.4863V0.386841H47.2762V12.4863Z" fill="white"/>
<path d="M30.5462 12.8454C30.5462 14.4292 30.3068 15.6907 29.828 16.6299C29.3676 17.5692 28.769 18.2874 28.0324 18.7846C27.3142 19.2819 26.5131 19.6041 25.6291 19.7515C24.7451 19.9172 23.898 20.0001 23.0876 20.0001L22.5352 15.6631C23.0876 15.6631 23.5941 15.617 24.0545 15.525C24.5333 15.4329 24.9385 15.2855 25.27 15.083C25.6199 14.862 25.8961 14.5765 26.0987 14.2266C26.3013 13.8583 26.4026 13.3979 26.4026 12.8454V0.386841H30.5462V12.8454Z" fill="white"/>
<path d="M21.1039 0.303868C20.9382 0.948435 20.7264 1.64825 20.4686 2.40331C20.2108 3.13996 19.9345 3.88582 19.6399 4.64088C19.3452 5.37753 19.0413 6.08655 18.7283 6.76795H15.7725C15.9014 6.21547 16.0303 5.64456 16.1592 5.05525C16.2881 4.46593 16.4078 3.87661 16.5183 3.28729C16.6472 2.67956 16.7577 2.09945 16.8498 1.54696C16.9603 0.994475 17.0524 0.478821 17.1261 0H20.9106L21.1039 0.303868Z" fill="#FE7522"/>
<path d="M0 0.386841H5.63536C7.07182 0.386841 8.36095 0.63546 9.50276 1.1327C10.6446 1.61152 11.6114 2.28371 12.4033 3.14927C13.1952 3.99642 13.8029 5.00931 14.2265 6.18794C14.6501 7.36658 14.8619 8.6465 14.8619 10.0277C14.8619 11.4274 14.6501 12.7257 14.2265 13.9227C13.8029 15.1014 13.1952 16.1235 12.4033 16.989C11.6114 17.8362 10.6446 18.5084 9.50276 19.0056C8.36095 19.4844 7.07182 19.7238 5.63536 19.7238H0V0.386841ZM5.63536 16.1327C6.42725 16.1327 7.13628 15.9762 7.76243 15.6631C8.38858 15.3316 8.92265 14.8896 9.36463 14.3371C9.80662 13.7662 10.1381 13.1124 10.3591 12.3758C10.5985 11.6207 10.7182 10.8288 10.7182 10.0001C10.7182 9.18978 10.5985 8.42551 10.3591 7.70728C10.1381 6.97063 9.80662 6.32606 9.36463 5.77358C8.92265 5.22109 8.38858 4.78831 7.76243 4.47524C7.13628 4.14374 6.42725 3.978 5.63536 3.978H4.14364V16.1327H5.63536Z" fill="white"/>
</svg>
