<svg width="27" height="28" viewBox="0 0 27 28" fill="none" xmlns="http://www.w3.org/2000/svg">
<path d="M16.8761 17.4958L15.0921 19.2799C14.2134 20.1585 12.7888 20.1585 11.9101 19.2799L10.1261 17.4958M13.5011 19.7458V14.1208M4.50111 8.49585V9.62085L22.5011 9.62085V6.24585C22.5011 4.38189 20.9901 2.87085 19.1261 2.87085L16.2358 2.87085C15.4842 2.87085 14.7542 3.1217 14.1614 3.58365L13.1034 4.40805C12.5105 4.86999 11.7805 5.12085 11.0289 5.12085H7.87611C6.01215 5.12085 4.50111 6.63189 4.50111 8.49585ZM23.0929 9.62085L3.90933 9.62085C2.47688 9.62085 1.40914 10.9416 1.70928 12.3423L3.73887 21.8137C4.18348 23.8885 6.01706 25.3708 8.13898 25.3708H18.8632C20.9852 25.3708 22.8187 23.8885 23.2634 21.8137L25.2929 12.3423C25.5931 10.9416 24.5253 9.62085 23.0929 9.62085Z" stroke="white" stroke-width="1.6875" stroke-linecap="round" stroke-linejoin="round"/>
</svg>
