<svg width="141" height="40" viewBox="0 0 141 40" fill="none" xmlns="http://www.w3.org/2000/svg">
<rect x="0.589355" width="139.821" height="40" rx="4.47427" fill="black"/>
<path d="M71.3276 12.8633H74.4149V19.6865H71.3276V12.8633Z" fill="#D9D9D9"/>
<path d="M120.411 16.1253V19.7048L109.891 23.9689H120.411V27.455H109.175L106.093 24.2491V12.7949H120.411V16.1253Z" fill="#D9D9D9"/>
<path d="M120.411 16.1253C116.707 17.6609 109.274 20.7568 109.175 20.8564V16.1253C112.764 16.1253 120.037 16.1253 120.411 16.1253ZM120.411 16.1253V19.7048L109.891 23.9689H120.411V27.455H109.175L106.093 24.2491V12.7949H120.411V16.1253Z" stroke="black" stroke-width="0.0622507"/>
<path d="M120.411 16.127C116.707 17.6625 109.274 20.7584 109.174 20.858V16.127H120.411Z" fill="black"/>
<path d="M120.411 16.127C116.707 17.6625 109.274 20.7584 109.174 20.858V16.127C112.764 16.127 120.037 16.127 120.411 16.127ZM120.411 16.127V19.7064" stroke="black" stroke-width="0.0622507"/>
<path d="M49.6297 16.1253V19.7048L39.1093 23.9689H49.6297V27.455H38.3934L35.312 24.2491V12.7949H49.6297V16.1253Z" fill="#D9D9D9"/>
<path d="M49.6297 16.1253C45.9258 17.6609 38.493 20.7568 38.3934 20.8564V16.1253C41.9832 16.1253 49.2562 16.1253 49.6297 16.1253ZM49.6297 16.1253V19.7048L39.1093 23.9689H49.6297V27.455H38.3934L35.312 24.2491V12.7949H49.6297V16.1253Z" stroke="black" stroke-width="0.0622507"/>
<path d="M49.6293 16.127C45.9254 17.6625 38.4927 20.7584 38.3931 20.858V16.127H49.6293Z" fill="black"/>
<path d="M49.6293 16.127C45.9254 17.6625 38.4927 20.7584 38.3931 20.858V16.127C41.9829 16.127 49.2558 16.127 49.6293 16.127ZM49.6293 16.127V19.7064" stroke="black" stroke-width="0.0622507"/>
<path d="M92.6071 12.8633H89.1187V24.0057L92.6071 27.4638H103.224V24.0057H92.6071V17.5044H103.224V14.6227H92.6071V12.8633Z" fill="#D9D9D9" stroke="black" stroke-width="0.0606681"/>
<path d="M57.2707 12.8398H53.7886V27.4931H68.1062V24.0957H57.2707V12.8398Z" fill="#D9D9D9" stroke="black" stroke-width="0.0606681"/>
<path d="M21.9679 27.4727H18.4858V16.199H21.9679V27.4727Z" fill="#D9D9D9" stroke="black" stroke-width="0.0606681"/>
<path d="M26.1535 16.1992L21.9331 16.1992V12.8018L32.8056 12.8018V16.1992L26.1535 16.1992Z" fill="#D9D9D9" stroke="#D9D9D9" stroke-width="0.0606681"/>
<path d="M83.4082 19.8431H74.482V22.5053H83.4082V24.2503H71.8198V27.4494H83.1397L86.5849 24.2503V22.5948C86.5849 21.4539 86.6207 20.2682 86.5849 20.2682V12.8633H83.4082V19.8431Z" fill="#D9D9D9" stroke="#D9D9D9" stroke-width="0.0447427"/>
<circle cx="124.927" cy="12.4823" r="2.01158" fill="#D9D9D9"/>
<path d="M106.829 32.3214V31.5058H107.247V32.3214H106.829ZM108.837 29.9341V30.71H110.031V31.1079H110.429V31.9235H110.031V32.3214H108.419V31.9036H110.011V31.1278H108.817V30.7299H108.419V29.9142H108.817V29.5164H110.429V29.9341H108.837ZM111.223 31.5256V32.3214H110.805V29.5164H112.416V29.9142H112.814V31.1278H112.416V31.5256H111.223ZM112.396 31.1079V29.9341H111.223V31.1079H112.396ZM113.608 31.5256V32.3214H113.191V29.9142H113.589V29.5164H114.802V29.9142H115.2V32.3214H114.782V31.5256H113.608ZM113.608 29.9341V31.1079H114.782V29.9341H113.608ZM115.576 31.9235V29.9142H115.974V29.5164H117.188V29.9142H117.586V30.332H117.168V29.9341H115.994V31.9036H117.168V31.5058H117.586V31.9235H117.188V32.3214H115.974V31.9235H115.576ZM117.962 32.3214V29.5164H119.971V29.9341H118.38V30.71H119.573V31.1278H118.38V31.9036H119.971V32.3214H117.962Z" fill="white"/>
</svg>
