<svg width="61" height="48" viewBox="0 0 61 48" fill="none" xmlns="http://www.w3.org/2000/svg">
<path d="M10.1594 44.3175C8.76262 44.3175 7.56685 43.8202 6.57214 42.8255C5.57743 41.8308 5.08008 40.635 5.08008 39.2382V8.76198C5.08008 7.36516 5.57743 6.16939 6.57214 5.17468C7.56685 4.17997 8.76262 3.68262 10.1594 3.68262H50.7944C52.1912 3.68262 53.387 4.17997 54.3817 5.17468C55.3764 6.16939 55.8737 7.36516 55.8737 8.76198V39.2382C55.8737 40.635 55.3764 41.8308 54.3817 42.8255C53.387 43.8202 52.1912 44.3175 50.7944 44.3175H10.1594ZM30.4769 26.5398L10.1594 13.8413V39.2382H50.7944V13.8413L30.4769 26.5398ZM30.4769 21.4604L50.7944 8.76198H10.1594L30.4769 21.4604ZM10.1594 13.8413V8.76198V39.2382V13.8413Z" fill="white"/>
</svg>
