<svg width="250" height="16" viewBox="0 0 250 16" fill="none" xmlns="http://www.w3.org/2000/svg">
<path d="M1.09999 9.71945L1.26364 4.05043L1.14444 4.04699L1.02521 4.04856L1.09999 9.71945ZM14.6176 10.1097L14.454 15.7787L14.6507 15.7844L14.8474 15.7764L14.6176 10.1097ZM28.2229 9.55802L28.4526 15.2247L28.4829 15.2235L28.5131 15.222L28.2229 9.55802ZM41.8262 8.86086L41.7349 3.19021L41.6354 3.19182L41.5359 3.19691L41.8262 8.86086ZM55.4358 8.64189L55.7174 2.9775L55.5311 2.96824L55.3445 2.97124L55.4358 8.64189ZM69.0572 9.31908L68.7756 14.9835L69.0924 14.9992L69.409 14.9795L69.0572 9.31908ZM82.6586 8.47368L82.5471 2.8034L82.4268 2.80576L82.3067 2.81322L82.6586 8.47368ZM96.2675 8.20626L96.2132 2.53514L96.1846 2.53541L96.1561 2.53597L96.2675 8.20626ZM109.878 8.07576L109.933 13.7469L110.018 13.7461L110.104 13.7427L109.878 8.07576ZM123.484 7.53443L123.629 1.86492L123.444 1.86015L123.258 1.86753L123.484 7.53443ZM137.101 7.88412L136.955 13.5536L137.05 13.5561L137.145 13.5553L137.101 7.88412ZM150.712 7.77907L150.77 2.10798L150.719 2.10746L150.668 2.10785L150.712 7.77907ZM164.326 7.91741L164.269 13.5885L164.395 13.5898L164.522 13.5854L164.326 7.91741ZM177.933 7.44695L178.129 13.1149L178.21 13.1121L178.292 13.1069L177.933 7.44695ZM191.534 6.58237L191.512 0.911029L191.343 0.911674L191.174 0.922412L191.534 6.58237ZM205.145 6.5306L205.167 12.2019L205.184 12.2019L205.2 12.2017L205.145 6.5306ZM218.756 6.39911L218.753 0.727725L218.727 0.727741L218.701 0.727989L218.756 6.39911ZM232.369 6.39047L232.372 12.0619L232.441 12.0618L232.511 12.0601L232.369 6.39047ZM245.977 6.04932L248.709 1.07949L247.366 0.34132L245.835 0.37972L245.977 6.04932ZM1 9.72077L1.07478 15.3917L1.17477 15.3903L1.09999 9.71945L1.02521 4.04856L0.925219 4.04988L1 9.72077ZM1.09999 9.71945L0.936346 15.3885L14.454 15.7787L14.6176 10.1097L14.7813 4.44064L1.26364 4.05043L1.09999 9.71945ZM14.6176 10.1097L14.8474 15.7764L28.4526 15.2247L28.2229 9.55802L27.9931 3.8913L14.3879 4.44293L14.6176 10.1097ZM28.2229 9.55802L28.5131 15.222L42.1164 14.5248L41.8262 8.86086L41.5359 3.19691L27.9326 3.89407L28.2229 9.55802ZM41.8262 8.86086L41.9174 14.5315L55.527 14.3125L55.4358 8.64189L55.3445 2.97124L41.7349 3.19021L41.8262 8.86086ZM55.4358 8.64189L55.1542 14.3063L68.7756 14.9835L69.0572 9.31908L69.3388 3.65469L55.7174 2.9775L55.4358 8.64189ZM69.0572 9.31908L69.409 14.9795L83.0104 14.1341L82.6586 8.47368L82.3067 2.81322L68.7054 3.65862L69.0572 9.31908ZM82.6586 8.47368L82.77 14.144L96.379 13.8765L96.2675 8.20626L96.1561 2.53597L82.5471 2.8034L82.6586 8.47368ZM96.2675 8.20626L96.3219 13.8774L109.933 13.7469L109.878 8.07576L109.824 2.40464L96.2132 2.53514L96.2675 8.20626ZM109.878 8.07576L110.104 13.7427L123.709 13.2013L123.484 7.53443L123.258 1.86753L109.653 2.40886L109.878 8.07576ZM123.484 7.53443L123.338 13.2039L136.955 13.5536L137.101 7.88412L137.246 2.21461L123.629 1.86492L123.484 7.53443ZM137.101 7.88412L137.145 13.5553L150.756 13.4503L150.712 7.77907L150.668 2.10785L137.057 2.21291L137.101 7.88412ZM150.712 7.77907L150.654 13.4502L164.269 13.5885L164.326 7.91741L164.384 2.24632L150.77 2.10798L150.712 7.77907ZM164.326 7.91741L164.522 13.5854L178.129 13.1149L177.933 7.44695L177.737 1.77895L164.13 2.24941L164.326 7.91741ZM177.933 7.44695L178.292 13.1069L191.893 12.2423L191.534 6.58237L191.174 0.922412L177.573 1.78699L177.933 7.44695ZM191.534 6.58237L191.555 12.2537L205.167 12.2019L205.145 6.5306L205.124 0.859258L191.512 0.911029L191.534 6.58237ZM205.145 6.5306L205.2 12.2017L218.811 12.0702L218.756 6.39911L218.701 0.727989L205.091 0.859481L205.145 6.5306ZM218.756 6.39911L218.76 12.0705L232.372 12.0619L232.369 6.39047L232.365 0.719089L218.753 0.727725L218.756 6.39911ZM232.369 6.39047L232.511 12.0601L246.119 11.7189L245.977 6.04932L245.835 0.37972L232.226 0.720869L232.369 6.39047ZM245.977 6.04932L243.244 11.0192L244.028 11.4498L246.76 6.47998L249.492 1.51015L248.709 1.07949L245.977 6.04932Z" fill="#14C28E"/>
</svg>
