<svg width="138" height="138" viewBox="0 0 138 138" fill="none" xmlns="http://www.w3.org/2000/svg">
<path d="M69 134C104.899 134 134 104.899 134 69C134 33.1015 104.899 4 69 4C33.1015 4 4 33.1015 4 69C4 104.899 33.1015 134 69 134Z" fill="#F5F5F5"/>
<path d="M85.0053 16.3325C89.7408 17.7687 94.2562 19.8493 98.4247 22.5159C102.422 25.0947 106.072 28.177 109.283 31.687C118.909 42.3029 124 56.2631 123.467 70.5832C123.134 80.483 120.129 90.1083 114.771 98.4397C107.018 110.441 94.8991 118.954 80.9795 122.176C76.3574 123.229 71.6206 123.693 66.882 123.556C56.9806 123.197 47.356 120.193 39.0088 114.855C35.0138 112.273 31.3648 109.191 28.1504 105.684C24.9936 102.213 22.2948 98.3513 20.1199 94.1939C17.9321 90.0375 16.2933 85.6146 15.2445 81.0362C14.1832 76.3967 13.719 71.6407 13.8631 66.8835C14.2199 56.9877 17.2229 47.3684 22.5593 39.027C25.1472 35.0328 28.2348 31.3855 31.747 28.1738C38.7026 21.8305 47.1669 17.3744 56.3332 15.2304C60.9742 14.1429 65.7367 13.6618 70.5014 13.7989C75.4291 13.9769 80.3091 14.8293 85.0053 16.3325ZM43.8074 29.4507C39.8092 31.9899 36.2174 35.1183 33.1534 38.7301C30.0997 42.3655 27.6221 46.448 25.8069 50.835L41.794 55.8259C42.886 52.8553 44.0895 49.9379 45.3941 47.1069C46.6986 44.2759 48.1647 41.5136 49.8089 38.8252C48.5074 37.4834 47.3414 36.0163 46.328 34.4454C45.2755 32.8964 44.4283 31.2175 43.8074 29.4507ZM23.2673 58.9703C22.266 63.6055 21.9828 68.367 22.4276 73.0882C22.8809 77.8229 24.0481 82.4619 25.8894 86.8475C27.39 85.7264 29.0257 84.7987 30.758 84.0863C32.4863 83.3832 34.2774 82.8458 36.1073 82.4813C36.2931 79.3561 36.654 76.2437 37.188 73.1588C37.7257 70.0885 38.4124 67.0097 39.2044 63.9455L23.2673 58.9703ZM54.6471 31.5905C55.8862 29.9213 57.2263 28.3296 58.6598 26.824C60.0857 25.2896 61.6058 23.8455 63.2113 22.5002C59.2383 22.9753 55.3458 23.9749 51.6355 25.4728C51.6871 26.6269 52.0055 27.7533 52.5658 28.7636C53.1518 29.7807 53.8499 30.7289 54.6471 31.5905ZM37.9189 103.519C37.3537 101.529 36.9164 99.5038 36.6096 97.4573C36.2872 95.4036 36.0907 93.3322 36.0213 91.2545C34.8755 91.5096 33.7619 91.8922 32.7013 92.3952C31.6839 92.8868 30.7911 93.6027 30.0901 94.489C31.1831 96.1529 32.3777 97.7478 33.667 99.2647C34.9833 100.78 36.4041 102.202 37.9189 103.519ZM69.6831 51.2316C67.345 50.2822 65.0663 49.2598 62.8302 48.1592C60.5767 47.0267 58.4054 45.7375 56.3323 44.3012C55.0312 46.5346 53.8437 48.8323 52.7744 51.1855C51.7198 53.5091 50.7547 55.8972 49.8678 58.328L65.9049 63.3345L69.6831 51.2316ZM63.3652 71.4697L47.3281 66.4633C46.6746 68.9669 46.1148 71.4633 45.6551 73.9909C45.1957 76.5345 44.865 79.0997 44.6645 81.6766C47.1866 81.6748 49.7057 81.8499 52.2032 82.2005C54.6735 82.5509 57.1188 83.0398 59.5662 83.6392L63.3652 71.4697ZM78.1399 24.1419C76.3754 24.4683 74.6762 25.0811 73.1095 25.9562C71.4505 26.8554 69.89 27.9258 68.4536 29.1496C67.0069 30.3906 65.6431 31.7249 64.3708 33.1441C63.1169 34.5822 61.9713 35.9077 60.9528 37.2363C62.694 38.4364 64.5139 39.518 66.4003 40.4737C68.2801 41.4264 70.2025 42.301 72.1728 43.0808L78.1399 24.1419ZM57.0317 91.7578C54.9753 91.2736 52.8959 90.8932 50.8013 90.6178C48.7062 90.3306 46.5942 90.1847 44.4795 90.181C44.5664 91.8365 44.7388 93.6283 44.9623 95.491C45.2013 97.382 45.5637 99.2552 46.0475 101.099C46.5377 102.921 47.2119 104.688 48.0597 106.374C48.8503 107.985 49.8991 109.456 51.1646 110.728L57.0317 91.7578ZM80.2361 45.6163C82.3001 46.0959 84.3953 46.4756 86.4998 46.7667C88.6004 47.0554 90.718 47.2031 92.8384 47.2086C92.79 45.5469 92.6457 43.7821 92.4159 41.8809C92.1836 39.9799 91.8041 38.0998 91.2808 36.2575C90.7642 34.4441 90.091 32.6791 89.2685 30.9823C88.4763 29.3797 87.4236 27.9197 86.1533 26.6618L80.2361 45.6163ZM77.6965 53.7515L73.9026 65.9044L89.9397 70.9108C90.5932 68.4071 91.1582 65.8941 91.6127 63.3832C92.0751 60.8388 92.4002 58.2715 92.5867 55.6922C90.0703 55.6938 87.5569 55.5204 85.0646 55.1735C82.6652 54.7721 80.2095 54.3165 77.6965 53.7515ZM67.5639 86.2091C69.9176 87.1086 72.2068 88.0976 74.4376 89.2148C76.6847 90.3474 78.8503 91.6348 80.9189 93.0676C82.2329 90.8404 83.4262 88.544 84.4934 86.1885C85.5533 83.8483 86.5131 81.4768 87.4001 79.046L71.363 74.0396L67.5639 86.2091ZM59.1279 113.232C60.8816 112.914 62.5692 112.303 64.1197 111.424C65.7644 110.501 67.3227 109.433 68.7757 108.231C70.2927 107.014 71.7079 105.675 73.0075 104.228C74.2781 102.795 75.432 101.326 76.3859 100.087C74.639 98.8849 72.8135 97.8016 70.9217 96.844C69.0305 95.8694 67.0862 95.0063 65.1159 94.2266L59.1279 113.232ZM99.4198 33.8037C99.9717 35.803 100.407 37.8326 100.724 39.8823C101.046 41.936 101.243 44.0075 101.312 46.0851C102.44 45.812 103.538 45.4322 104.594 44.9507C105.656 44.4856 106.585 43.7636 107.299 42.8496C106.191 41.1725 104.973 39.5702 103.655 38.0531C102.316 36.5659 100.902 35.1477 99.4198 33.8037ZM82.6656 105.816C81.4264 107.485 80.0863 109.077 78.6528 110.582C77.2309 112.085 75.7197 113.501 74.1274 114.823C76.0979 114.551 78.051 114.165 79.9768 113.667C81.9244 113.17 83.837 112.544 85.7021 111.795C85.6292 110.634 85.278 109.508 84.6781 108.511C84.0922 107.553 83.4184 106.65 82.6656 105.816ZM114.045 78.4361C115.023 73.7828 115.28 69.0068 114.807 64.2755C114.352 59.5458 113.183 54.9124 111.34 50.5328C109.874 51.6978 108.243 52.6376 106.499 53.3211C104.757 54.004 102.957 54.532 101.122 54.899C100.936 58.0242 100.575 61.1366 100.041 64.2215C99.4869 67.2866 98.8169 70.3706 98.0249 73.4348L114.045 78.4361ZM93.5052 107.956C97.5145 105.397 101.114 102.245 104.18 98.6095C107.259 94.9934 109.763 90.9251 111.605 86.5473L95.5342 81.5305C94.4422 84.501 93.2554 87.4236 91.9842 90.265C90.6836 93.1134 89.2092 95.8792 87.5693 98.5467C88.87 99.8926 90.0494 101.351 91.094 102.904C92.145 104.458 92.9578 106.161 93.5052 107.956Z" fill="#14C28E"/>
</svg>
