<svg width="8" height="11" viewBox="0 0 8 11" fill="none" xmlns="http://www.w3.org/2000/svg">
<path d="M4 2.5C6.20914 2.5 8 4.29086 8 6.5C8 8.70914 6.20914 10.5 4 10.5C1.79086 10.5 0 8.70914 0 6.5C0 4.29086 1.79086 2.5 4 2.5ZM4.39355 4.75391C4.23254 4.41521 3.76746 4.41521 3.60645 4.75391L3.32812 5.33984C3.26422 5.47448 3.14095 5.56825 2.99805 5.58984L2.37598 5.68359C2.01622 5.73805 1.87249 6.19803 2.13281 6.46191L2.58301 6.91797C2.68632 7.02268 2.73326 7.17343 2.70898 7.32129L2.60254 7.96582C2.54122 8.33834 2.91746 8.62209 3.23926 8.44629L3.7959 8.14258C3.9237 8.07273 4.0763 8.07273 4.2041 8.14258L4.76074 8.44629C5.08254 8.62209 5.45878 8.33834 5.39746 7.96582L5.29102 7.32129C5.26674 7.17343 5.31368 7.02268 5.41699 6.91797L5.86719 6.46191C6.12751 6.19803 5.98378 5.73805 5.62402 5.68359L5.00195 5.58984C4.85905 5.56825 4.73578 5.47448 4.67188 5.33984L4.39355 4.75391ZM5.5 0.5C6.05228 0.5 6.5 0.947715 6.5 1.5V2.46094C5.7738 2.01049 4.9174 1.75 4 1.75C3.0826 1.75 2.2262 2.01049 1.5 2.46094V1.5C1.5 0.947715 1.94772 0.5 2.5 0.5H5.5Z" fill="#C7B5FD"/>
</svg>
