<svg width="131" height="136" viewBox="0 0 131 136" fill="none" xmlns="http://www.w3.org/2000/svg">
<path d="M33.8726 2.03887L5.03149 16.7269C2.12792 18.2056 0.503216 21.3826 1.00406 24.6023L7.80894 68.348C7.91431 69.0254 7.92678 69.7139 7.84602 70.3947L1.82619 121.133C1.11643 127.115 7.36396 131.472 12.7321 128.738L33.8726 117.972C36.0677 116.854 38.6704 116.879 40.8434 118.039L61.6144 129.129C63.833 130.314 66.4961 130.314 68.7147 129.129L89.6892 117.931C91.748 116.832 94.2 116.748 96.3288 117.705L117.713 127.314C123.123 129.745 129.092 125.264 128.267 119.391L121.402 70.4731C121.299 69.7409 121.302 69.009 121.417 68.2786C123.428 55.5025 127.305 33.2452 129.146 22.7571C129.743 19.3561 127.957 15.9842 124.808 14.5689L96.3288 1.77162C94.2 0.814991 91.748 0.898488 89.6892 1.99773L68.7147 13.1961C66.4961 14.3806 63.833 14.3806 61.6144 13.1961L40.8434 2.10637C38.6704 0.946194 36.0677 0.920993 33.8726 2.03887Z" fill="#9C66F5"/>
<path d="M93.585 14.0781C98.5932 16.2034 105.313 19.1577 110.687 21.75C113.41 23.0641 115.696 24.2415 117.224 25.1465C117.235 25.1533 117.247 25.1603 117.258 25.167C117.069 26.0876 116.85 27.2312 116.61 28.5391C116.045 31.6242 115.342 35.7298 114.595 40.2168C113.474 46.9514 112.249 54.5852 111.235 61.0029L110.305 66.9375C110.201 67.6062 110.187 68.2692 110.255 68.9229L110.289 69.2021L116.69 114.817L96.918 104.932C94.8676 103.907 92.4767 103.842 90.3838 104.739L89.9697 104.932L65.1768 117.328L40.4961 104.987L40.2783 104.883C38.0113 103.836 35.3725 103.941 33.1914 105.177L13.5479 116.308L19.1514 69.0781C19.2346 68.3765 19.2219 67.6669 19.1133 66.9688L13.0215 27.8115L37.0273 14.207L61.7031 26.5449C63.8902 27.6384 66.4643 27.6384 68.6514 26.5449L93.585 14.0781ZM118.043 22.21C118.07 22.1474 118.101 22.0849 118.133 22.0215C118.102 22.0837 118.071 22.1464 118.043 22.21Z" stroke="#F5F5F5" stroke-width="8"/>
<path d="M36.4922 12.7764V106.159M64.7586 26.2449C64.7586 29.1182 64.7586 89.6969 64.7586 119.627M93.025 12.7764V106.159" stroke="#F5F5F5" stroke-width="8"/>
</svg>
