<svg width="98" height="96" viewBox="0 0 98 96" fill="none" xmlns="http://www.w3.org/2000/svg">
<path d="M34.0744 95.2985L34.6711 70.958L16.0344 83.7688L-2.38885e-07 59.7412L20.6422 47.4879L0.0978289 34.6575L16.0344 10.7669L34.6614 23.5777L34.0744 1.36252e-07L62.817 2.51184e-07L62.23 23.3039L79.7612 10.8647L97.0772 34.4717L76.2393 47.4879L97.1849 59.9173L79.7612 83.671L62.2202 71.2318L62.8072 95.2985L34.0744 95.2985Z" fill="#F5F5F5"/>
<path d="M39.0929 90.4089L39.7973 61.5015L17.3452 76.9331L6.93603 61.2864L30.0436 47.5955L6.96538 33.1809L17.3452 17.6124L39.7875 33.0342L39.0831 4.88965L57.7981 4.88965L57.0938 32.9462L78.6654 17.6417L90.0137 33.1125L66.8377 47.5955L90.0529 61.394L78.6654 76.9136L57.0938 61.6189L57.7981 90.4285L39.0929 90.4089Z" fill="#9C66F5"/>
</svg>
