<svg width="178" height="86" viewBox="0 0 178 86" fill="none" xmlns="http://www.w3.org/2000/svg">
<path d="M135.627 0.87793H42.34C18.9679 0.87793 0.0209961 19.8248 0.0209961 43.197C0.0209961 66.5691 18.9679 85.516 42.34 85.516H135.627C158.999 85.516 177.946 66.5691 177.946 43.197C177.946 19.8248 158.999 0.87793 135.627 0.87793Z" fill="#FE7522"/>
<path d="M88.984 68.4065C102.907 68.4065 114.193 57.12 114.193 43.1974C114.193 29.2748 102.907 17.9883 88.984 17.9883C75.0614 17.9883 63.7749 29.2748 63.7749 43.1974C63.7749 57.12 75.0614 68.4065 88.984 68.4065Z" fill="#F5F5F5"/>
<path d="M139.401 43.1899C139.402 46.501 138.751 49.7799 137.485 52.8393C136.218 55.8987 134.362 58.6786 132.021 61.0202C129.68 63.3619 126.9 65.2195 123.841 66.4868C120.782 67.7542 117.504 68.4065 114.192 68.4065V17.9883C120.877 17.9883 127.288 20.6432 132.015 25.3692C136.743 30.0952 139.399 36.5053 139.401 43.1899Z" fill="#F5F5F5"/>
<path d="M164.618 43.1889C164.618 49.8767 161.962 56.2907 157.233 61.0197C152.504 65.7488 146.09 68.4055 139.402 68.4055V17.9873C146.087 17.9873 152.499 20.642 157.227 25.3678C161.956 30.0935 164.614 36.5036 164.618 43.1889Z" fill="#F5F5F5"/>
<path d="M38.5581 43.1974C38.5601 36.5108 41.2177 30.0988 45.9466 25.3714C50.6754 20.644 57.0882 17.9883 63.7747 17.9883V68.4065C57.0882 68.4065 50.6754 65.7508 45.9466 61.0234C41.2177 56.296 38.5601 49.8839 38.5581 43.1974Z" fill="#F5F5F5"/>
<path d="M13.3486 43.1964C13.3506 36.5112 16.0072 30.1003 20.7344 25.3731C25.4616 20.6459 31.8725 17.9893 38.5577 17.9873V68.4055C31.8725 68.4035 25.4616 65.7469 20.7344 61.0197C16.0072 56.2925 13.3506 49.8817 13.3486 43.1964Z" fill="#F5F5F5"/>
</svg>
