<svg width="83" height="83" viewBox="0 0 83 83" fill="none" xmlns="http://www.w3.org/2000/svg">
<g clip-path="url(#clip0_2249_18812)">
<path d="M21.2351 5.3149L37.0285 24.1115L41.5278 0H41.9815L46.3026 24.0143L62.0798 5.3149L62.3823 5.51475L54.1831 28.7242L77.2953 20.4008L77.4952 20.7033L58.6716 36.729L82.9343 41.05V41.4551L58.9741 45.8626L77.5708 61.656L77.3709 62.0071L54.1831 53.7917L62.6037 77.0174L62.2041 77.2172L46.2918 58.8041L41.9707 82.7158H41.517L37.0069 58.3018L20.9164 77.2064L20.6139 77.0066L28.7969 53.8889L5.73328 62.1152L5.48482 61.7641L24.1842 45.9706L0.169922 41.4605V41.05L24.4759 36.729L5.8359 20.6006L5.93313 20.3036L28.8941 28.5244L20.9272 5.51475L21.2351 5.3149Z" fill="#FE7522"/>
<path d="M38.3527 53.3057L26.3942 67.3491L32.4491 50.2269L15.3809 56.3142L29.1921 44.6473L11.4434 41.3147L29.4676 38.1172L15.6186 26.1316L32.5139 32.1811L26.6373 15.2102L38.3365 29.1402L41.7123 11.0944L44.9369 29.0591L56.5606 15.2966L50.5003 32.408L67.5144 26.2775L53.6493 38.1117L71.56 41.2931L53.9625 44.5285L67.7683 56.2494L50.4679 50.1243L56.7982 67.5651L44.9315 53.8296L41.7285 71.5783L38.3527 53.3057Z" fill="#FE7522"/>
</g>
<defs>
<clipPath id="clip0_2249_18812">
<rect width="82.7644" height="82.7158" fill="white" transform="translate(0.169922)"/>
</clipPath>
</defs>
</svg>
